<svg xmlns="http://www.w3.org/2000/svg" viewBox="0 0 19 15" fill="none"
    class="-mt-0.5 ml-0.5 inline-block text-token-link hover:text-token-link-hover text-sky-300/80" width="19"
    height="15">
    <path
        d="M4.42 0.75H2.8625H2.75C1.64543 0.75 0.75 1.64543 0.75 2.75V11.65C0.75 12.7546 1.64543 13.65 2.75 13.65H2.8625C2.8625 13.65 2.8625 13.65 2.8625 13.65C2.8625 13.65 4.00751 13.65 4.42 13.65M13.98 13.65H15.5375H15.65C16.7546 13.65 17.65 12.7546 17.65 11.65V2.75C17.65 1.64543 16.7546 0.75 15.65 0.75H15.5375H13.98"
        stroke="currentColor" stroke-width="1.5" stroke-linecap="round" stroke-linejoin="round"></path>
    <path fill-rule="evenodd" clip-rule="evenodd"
        d="M6.16045 7.41534C5.32257 7.228 4.69638 6.47988 4.69638 5.58551C4.69638 4.54998 5.53584 3.71051 6.57136 3.71051C7.60689 3.71051 8.44635 4.54998 8.44635 5.58551C8.44635 5.8965 8.37064 6.1898 8.23664 6.448C8.22998 6.48984 8.21889 6.53136 8.20311 6.57208L6.77017 10.2702C6.63182 10.6272 6.18568 10.7873 5.7737 10.6276C5.36172 10.468 5.13991 10.0491 5.27826 9.69206L6.16045 7.41534ZM11.4177 7.41534C10.5798 7.228 9.95362 6.47988 9.95362 5.58551C9.95362 4.54998 10.7931 3.71051 11.8286 3.71051C12.8641 3.71051 13.7036 4.54998 13.7036 5.58551C13.7036 5.8965 13.6279 6.1898 13.4939 6.448C13.4872 6.48984 13.4761 6.53136 13.4604 6.57208L12.0274 10.2702C11.8891 10.6272 11.4429 10.7873 11.0309 10.6276C10.619 10.468 10.3971 10.0491 10.5355 9.69206L11.4177 7.41534Z"
        fill="currentColor"></path>
</svg>